<svg viewBox="0 0 1711 1711" fill="currentColor" xmlns="http://www.w3.org/2000/svg">
  <path d="M1036.26 1002.28H1274.13L1273.2 1021.37C1264.82 1131.69 1223.39 1219.67 1149.38 1283.44C1076.29 1346.75 978.54 1378.87 858.9 1378.87C728.09 1378.87 623.35 1334.18 547.47 1245.27C472.99 1157.29 434.82 1035.79 434.82 884.04V823.53C434.82 726.7 452.52 640.12 486.5 566.1C521.41 491.15 571.69 432.49 636.39 392.47C701.09 352.43 776.51 331.95 861.69 331.95C979.46 331.95 1075.82 364.07 1147.98 427.85C1220.6 491.15 1262.96 581.46 1274.13 695.52L1275.99 714.6H1037.65L1036.72 698.77C1032.07 639.66 1015.77 596.83 988.77 571.69C961.77 546.09 918.94 533.52 861.69 533.52C799.78 533.52 754.63 554.47 724.36 598.69C692.71 643.84 676.42 716.46 675.49 814.22V888.7C675.49 991.11 690.85 1066.53 721.11 1112.61C749.97 1156.83 795.12 1178.24 858.9 1178.24C917.09 1178.24 960.38 1165.67 987.85 1140.07C1014.84 1114.93 1031.14 1073.97 1035.33 1018.57L1036.26 1002.27V1002.28Z"/>
</svg>
